<svg width="16" height="16" viewBox="0 0 16 16" fill="none" xmlns="http://www.w3.org/2000/svg">
<path d="M5.21941 10.7807C3.78569 9.34417 2.68309 7.61178 1.98875 5.70468C1.60675 4.66202 1.95675 3.51668 2.74208 2.73135L3.22808 2.24602C3.35874 2.11509 3.51393 2.01123 3.68478 1.94036C3.85563 1.86949 4.03878 1.83301 4.22375 1.83301C4.40871 1.83301 4.59186 1.86949 4.76271 1.94036C4.93356 2.01123 5.08876 2.11509 5.21941 2.24602L6.35741 3.38402C6.48834 3.51467 6.5922 3.66987 6.66307 3.84072C6.73394 4.01157 6.77042 4.19472 6.77042 4.37968C6.77042 4.56465 6.73394 4.7478 6.66307 4.91865C6.5922 5.08949 6.48834 5.24469 6.35741 5.37535L6.07741 5.65535C5.96534 5.7674 5.87643 5.90043 5.81577 6.04685C5.75512 6.19327 5.7239 6.3502 5.7239 6.50868C5.7239 6.66717 5.75512 6.8241 5.81577 6.97051C5.87643 7.11693 5.96534 7.24996 6.07741 7.36202L8.63741 9.92268C8.74947 10.0348 8.8825 10.1237 9.02892 10.1843C9.17533 10.245 9.33226 10.2762 9.49075 10.2762C9.64923 10.2762 9.80616 10.245 9.95258 10.1843C10.099 10.1237 10.232 10.0348 10.3441 9.92268L10.6247 9.64268C10.7554 9.51176 10.9106 9.40789 11.0815 9.33702C11.2523 9.26615 11.4354 9.22967 11.6204 9.22967C11.8054 9.22967 11.9885 9.26615 12.1594 9.33702C12.3302 9.40789 12.4854 9.51176 12.6161 9.64268L13.7541 10.7807C13.885 10.9113 13.9889 11.0665 14.0597 11.2374C14.1306 11.4082 14.1671 11.5914 14.1671 11.7763C14.1671 11.9613 14.1306 12.1445 14.0597 12.3153C13.9889 12.4862 13.885 12.6414 13.7541 12.772L13.2687 13.2573C12.4834 14.0433 11.3381 14.3933 10.2954 14.0113C8.38831 13.317 6.65593 12.2144 5.21941 10.7807Z" stroke="white" stroke-width="1.5" stroke-linejoin="round"/>
</svg>
